<svg xmlns="http://www.w3.org/2000/svg" version="1.1" xmlns:xlink="http://www.w3.org/1999/xlink" xmlns:svgjs="http://svgjs.com/svgjs" width="1920" height="1080" preserveAspectRatio="none" viewBox="0 0 1920 1080"><g mask="url(&quot;#SvgjsMask1028&quot;)" fill="none"><rect width="1920" height="1080" x="0" y="0" fill="#0e2a47"></rect><path d="M 0,786 C 96,683 288,310 480,271 C 672,232 768,593.4 960,591 C 1152,588.6 1248,231.6 1440,259 C 1632,286.4 1824,634.2 1920,728L1920 1080L0 1080z" fill="#184a7e"></path><path d="M 0,50 C 96,179 288,643 480,695 C 672,747 768,336.4 960,310 C 1152,283.6 1248,600.6 1440,563 C 1632,525.4 1824,210.2 1920,122L1920 1080L0 1080z" fill="#2264ab"></path></g><defs><mask id="SvgjsMask1028"><rect width="1920" height="1080" fill="#ffffff"></rect></mask></defs></svg>