<?xml version="1.0" encoding="UTF-8" standalone="no"?>
<!DOCTYPE svg PUBLIC "-//W3C//DTD SVG 1.1//EN"
 "http://www.w3.org/Graphics/SVG/1.1/DTD/svg11.dtd">
<!-- Generated by graphviz version 2.47.3 (20210619.1520)
 -->
<!-- Title: dependencies Pages: 1 -->
<svg width="4064pt" height="247pt"
 viewBox="0.00 0.00 4064.00 246.80" xmlns="http://www.w3.org/2000/svg" xmlns:xlink="http://www.w3.org/1999/xlink">
<g id="graph0" class="graph" transform="scale(1 1) rotate(0) translate(4 242.8)">
<title>dependencies</title>
<polygon fill="white" stroke="transparent" points="-4,4 -4,-242.8 4060,-242.8 4060,4 -4,4"/>
<text text-anchor="middle" x="2028" y="-8.2" font-family="sans-serif" font-size="14.00">dependencies</text>
<g id="clust1" class="cluster">
<title>cluster_AppModule</title>
<polygon fill="none" stroke="black" stroke-dasharray="1,5" points="8,-32.8 8,-230.8 4048,-230.8 4048,-32.8 8,-32.8"/>
</g>
<g id="clust27" class="cluster">
<title>cluster_AppModule_providers</title>
<polygon fill="none" stroke="black" points="3408,-40.8 3408,-92.8 4040,-92.8 4040,-40.8 3408,-40.8"/>
</g>
<g id="clust24" class="cluster">
<title>cluster_AppModule_imports</title>
<polygon fill="none" stroke="black" points="3256,-40.8 3256,-92.8 3400,-92.8 3400,-40.8 3256,-40.8"/>
</g>
<g id="clust26" class="cluster">
<title>cluster_AppModule_bootstrap</title>
<polygon fill="none" stroke="black" points="1962,-170.8 1962,-222.8 2086,-222.8 2086,-170.8 1962,-170.8"/>
</g>
<g id="clust2" class="cluster">
<title>cluster_AppModule_declarations</title>
<polygon fill="none" stroke="black" points="16,-40.8 16,-92.8 3248,-92.8 3248,-40.8 16,-40.8"/>
</g>
<!-- AppComponent -->
<g id="node1" class="node">
<title>AppComponent</title>
<polygon fill="#ffffb3" stroke="black" points="3239.94,-84.8 3134.06,-84.8 3134.06,-48.8 3239.94,-48.8 3239.94,-84.8"/>
<text text-anchor="middle" x="3187" y="-62.6" font-family="Times,serif" font-size="14.00">AppComponent</text>
</g>
<!-- AppModule -->
<g id="node22" class="node">
<title>AppModule</title>
<polygon fill="#8dd3c7" stroke="black" points="2065.66,-149.8 2062.66,-153.8 2041.66,-153.8 2038.66,-149.8 1982.34,-149.8 1982.34,-113.8 2065.66,-113.8 2065.66,-149.8"/>
<text text-anchor="middle" x="2024" y="-127.6" font-family="Times,serif" font-size="14.00">AppModule</text>
</g>
<!-- AppComponent&#45;&gt;AppModule -->
<g id="edge1" class="edge">
<title>AppComponent&#45;&gt;AppModule</title>
<path fill="none" stroke="black" d="M3187,-85.11C3187,-104.95 3187,-133.8 3187,-133.8 3187,-133.8 2075.73,-133.8 2075.73,-133.8"/>
<polygon fill="black" stroke="black" points="2075.73,-130.3 2065.73,-133.8 2075.73,-137.3 2075.73,-130.3"/>
</g>
<!-- ChartjsComponent -->
<g id="node2" class="node">
<title>ChartjsComponent</title>
<polygon fill="#ffffb3" stroke="black" points="3115.77,-84.8 2994.23,-84.8 2994.23,-48.8 3115.77,-48.8 3115.77,-84.8"/>
<text text-anchor="middle" x="3055" y="-62.6" font-family="Times,serif" font-size="14.00">ChartjsComponent</text>
</g>
<!-- ChartjsComponent&#45;&gt;AppModule -->
<g id="edge2" class="edge">
<title>ChartjsComponent&#45;&gt;AppModule</title>
<path fill="none" stroke="black" d="M3055,-84.97C3055,-103.89 3055,-130.8 3055,-130.8 3055,-130.8 2075.69,-130.8 2075.69,-130.8"/>
<polygon fill="black" stroke="black" points="2075.69,-127.3 2065.69,-130.8 2075.69,-134.3 2075.69,-127.3"/>
</g>
<!-- CsvUploadComponent -->
<g id="node3" class="node">
<title>CsvUploadComponent</title>
<polygon fill="#ffffb3" stroke="black" points="2976.33,-84.8 2831.67,-84.8 2831.67,-48.8 2976.33,-48.8 2976.33,-84.8"/>
<text text-anchor="middle" x="2904" y="-62.6" font-family="Times,serif" font-size="14.00">CsvUploadComponent</text>
</g>
<!-- CsvUploadComponent&#45;&gt;AppModule -->
<g id="edge3" class="edge">
<title>CsvUploadComponent&#45;&gt;AppModule</title>
<path fill="none" stroke="black" d="M2904,-85.1C2904,-103.07 2904,-127.8 2904,-127.8 2904,-127.8 2075.85,-127.8 2075.85,-127.8"/>
<polygon fill="black" stroke="black" points="2075.85,-124.3 2065.85,-127.8 2075.85,-131.3 2075.85,-124.3"/>
</g>
<!-- DashboardComponent -->
<g id="node4" class="node">
<title>DashboardComponent</title>
<polygon fill="#ffffb3" stroke="black" points="2813.97,-84.8 2672.03,-84.8 2672.03,-48.8 2813.97,-48.8 2813.97,-84.8"/>
<text text-anchor="middle" x="2743" y="-62.6" font-family="Times,serif" font-size="14.00">DashboardComponent</text>
</g>
<!-- DashboardComponent&#45;&gt;AppModule -->
<g id="edge4" class="edge">
<title>DashboardComponent&#45;&gt;AppModule</title>
<path fill="none" stroke="black" d="M2743,-84.82C2743,-102.17 2743,-125.8 2743,-125.8 2743,-125.8 2075.76,-125.8 2075.76,-125.8"/>
<polygon fill="black" stroke="black" points="2075.76,-122.3 2065.76,-125.8 2075.76,-129.3 2075.76,-122.3"/>
</g>
<!-- DragDropComponent -->
<g id="node5" class="node">
<title>DragDropComponent</title>
<polygon fill="#ffffb3" stroke="black" points="2654.08,-84.8 2515.92,-84.8 2515.92,-48.8 2654.08,-48.8 2654.08,-84.8"/>
<text text-anchor="middle" x="2585" y="-62.6" font-family="Times,serif" font-size="14.00">DragDropComponent</text>
</g>
<!-- DragDropComponent&#45;&gt;AppModule -->
<g id="edge5" class="edge">
<title>DragDropComponent&#45;&gt;AppModule</title>
<path fill="none" stroke="black" d="M2585,-84.83C2585,-101.2 2585,-122.8 2585,-122.8 2585,-122.8 2075.71,-122.8 2075.71,-122.8"/>
<polygon fill="black" stroke="black" points="2075.71,-119.3 2065.71,-122.8 2075.71,-126.3 2075.71,-119.3"/>
</g>
<!-- ExcelExportComponent -->
<g id="node6" class="node">
<title>ExcelExportComponent</title>
<polygon fill="#ffffb3" stroke="black" points="2497.81,-84.8 2346.19,-84.8 2346.19,-48.8 2497.81,-48.8 2497.81,-84.8"/>
<text text-anchor="middle" x="2422" y="-62.6" font-family="Times,serif" font-size="14.00">ExcelExportComponent</text>
</g>
<!-- ExcelExportComponent&#45;&gt;AppModule -->
<g id="edge6" class="edge">
<title>ExcelExportComponent&#45;&gt;AppModule</title>
<path fill="none" stroke="black" d="M2422,-85.04C2422,-100.37 2422,-119.8 2422,-119.8 2422,-119.8 2075.84,-119.8 2075.84,-119.8"/>
<polygon fill="black" stroke="black" points="2075.84,-116.3 2065.84,-119.8 2075.84,-123.3 2075.84,-116.3"/>
</g>
<!-- FileUploadComponent -->
<g id="node7" class="node">
<title>FileUploadComponent</title>
<polygon fill="#ffffb3" stroke="black" points="2328.32,-84.8 2183.68,-84.8 2183.68,-48.8 2328.32,-48.8 2328.32,-84.8"/>
<text text-anchor="middle" x="2256" y="-62.6" font-family="Times,serif" font-size="14.00">FileUploadComponent</text>
</g>
<!-- FileUploadComponent&#45;&gt;AppModule -->
<g id="edge7" class="edge">
<title>FileUploadComponent&#45;&gt;AppModule</title>
<path fill="none" stroke="black" d="M2256,-84.85C2256,-99.17 2256,-116.8 2256,-116.8 2256,-116.8 2075.74,-116.8 2075.74,-116.8"/>
<polygon fill="black" stroke="black" points="2075.74,-113.3 2065.74,-116.8 2075.74,-120.3 2075.74,-113.3"/>
</g>
<!-- FooterComponent -->
<g id="node8" class="node">
<title>FooterComponent</title>
<polygon fill="#ffffb3" stroke="black" points="2165.88,-84.8 2048.12,-84.8 2048.12,-48.8 2165.88,-48.8 2165.88,-84.8"/>
<text text-anchor="middle" x="2107" y="-62.6" font-family="Times,serif" font-size="14.00">FooterComponent</text>
</g>
<!-- FooterComponent&#45;&gt;AppModule -->
<g id="edge8" class="edge">
<title>FooterComponent&#45;&gt;AppModule</title>
<path fill="none" stroke="black" d="M2056.94,-84.91C2056.94,-84.91 2056.94,-103.79 2056.94,-103.79"/>
<polygon fill="black" stroke="black" points="2053.44,-103.79 2056.94,-113.79 2060.44,-103.79 2053.44,-103.79"/>
</g>
<!-- GeneralElementsComponent -->
<g id="node9" class="node">
<title>GeneralElementsComponent</title>
<polygon fill="#ffffb3" stroke="black" points="2029.73,-84.8 1852.27,-84.8 1852.27,-48.8 2029.73,-48.8 2029.73,-84.8"/>
<text text-anchor="middle" x="1941" y="-62.6" font-family="Times,serif" font-size="14.00">GeneralElementsComponent</text>
</g>
<!-- GeneralElementsComponent&#45;&gt;AppModule -->
<g id="edge9" class="edge">
<title>GeneralElementsComponent&#45;&gt;AppModule</title>
<path fill="none" stroke="black" d="M2006.02,-84.91C2006.02,-84.91 2006.02,-103.79 2006.02,-103.79"/>
<polygon fill="black" stroke="black" points="2002.52,-103.79 2006.02,-113.79 2009.52,-103.79 2002.52,-103.79"/>
</g>
<!-- JwtTokenExampleComponent -->
<g id="node10" class="node">
<title>JwtTokenExampleComponent</title>
<polygon fill="#ffffb3" stroke="black" points="1834.3,-84.8 1647.7,-84.8 1647.7,-48.8 1834.3,-48.8 1834.3,-84.8"/>
<text text-anchor="middle" x="1741" y="-62.6" font-family="Times,serif" font-size="14.00">JwtTokenExampleComponent</text>
</g>
<!-- JwtTokenExampleComponent&#45;&gt;AppModule -->
<g id="edge10" class="edge">
<title>JwtTokenExampleComponent&#45;&gt;AppModule</title>
<path fill="none" stroke="black" d="M1741,-84.85C1741,-99.17 1741,-116.8 1741,-116.8 1741,-116.8 1972.24,-116.8 1972.24,-116.8"/>
<polygon fill="black" stroke="black" points="1972.24,-120.3 1982.24,-116.8 1972.24,-113.3 1972.24,-120.3"/>
</g>
<!-- LoadingScreenComponent -->
<g id="node11" class="node">
<title>LoadingScreenComponent</title>
<polygon fill="#ffffb3" stroke="black" points="1630.08,-84.8 1463.92,-84.8 1463.92,-48.8 1630.08,-48.8 1630.08,-84.8"/>
<text text-anchor="middle" x="1547" y="-62.6" font-family="Times,serif" font-size="14.00">LoadingScreenComponent</text>
</g>
<!-- LoadingScreenComponent&#45;&gt;AppModule -->
<g id="edge11" class="edge">
<title>LoadingScreenComponent&#45;&gt;AppModule</title>
<path fill="none" stroke="black" d="M1547,-85.04C1547,-100.37 1547,-119.8 1547,-119.8 1547,-119.8 1972.09,-119.8 1972.09,-119.8"/>
<polygon fill="black" stroke="black" points="1972.09,-123.3 1982.09,-119.8 1972.09,-116.3 1972.09,-123.3"/>
</g>
<!-- LoginComponent -->
<g id="node12" class="node">
<title>LoginComponent</title>
<polygon fill="#ffffb3" stroke="black" points="1446.28,-84.8 1331.72,-84.8 1331.72,-48.8 1446.28,-48.8 1446.28,-84.8"/>
<text text-anchor="middle" x="1389" y="-62.6" font-family="Times,serif" font-size="14.00">LoginComponent</text>
</g>
<!-- LoginComponent&#45;&gt;AppModule -->
<g id="edge12" class="edge">
<title>LoginComponent&#45;&gt;AppModule</title>
<path fill="none" stroke="black" d="M1389,-84.83C1389,-101.2 1389,-122.8 1389,-122.8 1389,-122.8 1972.34,-122.8 1972.34,-122.8"/>
<polygon fill="black" stroke="black" points="1972.34,-126.3 1982.34,-122.8 1972.34,-119.3 1972.34,-126.3"/>
</g>
<!-- ModalsComponent -->
<g id="node13" class="node">
<title>ModalsComponent</title>
<polygon fill="#ffffb3" stroke="black" points="1313.83,-84.8 1190.17,-84.8 1190.17,-48.8 1313.83,-48.8 1313.83,-84.8"/>
<text text-anchor="middle" x="1252" y="-62.6" font-family="Times,serif" font-size="14.00">ModalsComponent</text>
</g>
<!-- ModalsComponent&#45;&gt;AppModule -->
<g id="edge13" class="edge">
<title>ModalsComponent&#45;&gt;AppModule</title>
<path fill="none" stroke="black" d="M1252,-84.82C1252,-102.17 1252,-125.8 1252,-125.8 1252,-125.8 1972.22,-125.8 1972.22,-125.8"/>
<polygon fill="black" stroke="black" points="1972.22,-129.3 1982.22,-125.8 1972.22,-122.3 1972.22,-129.3"/>
</g>
<!-- NavbarComponent -->
<g id="node14" class="node">
<title>NavbarComponent</title>
<polygon fill="#ffffb3" stroke="black" points="1172.03,-84.8 1049.97,-84.8 1049.97,-48.8 1172.03,-48.8 1172.03,-84.8"/>
<text text-anchor="middle" x="1111" y="-62.6" font-family="Times,serif" font-size="14.00">NavbarComponent</text>
</g>
<!-- NavbarComponent&#45;&gt;AppModule -->
<g id="edge14" class="edge">
<title>NavbarComponent&#45;&gt;AppModule</title>
<path fill="none" stroke="black" d="M1111,-85.1C1111,-103.07 1111,-127.8 1111,-127.8 1111,-127.8 1972.1,-127.8 1972.1,-127.8"/>
<polygon fill="black" stroke="black" points="1972.1,-131.3 1982.1,-127.8 1972.1,-124.3 1972.1,-131.3"/>
</g>
<!-- NotFoundComponent -->
<g id="node15" class="node">
<title>NotFoundComponent</title>
<polygon fill="#ffffb3" stroke="black" points="1032.11,-84.8 893.89,-84.8 893.89,-48.8 1032.11,-48.8 1032.11,-84.8"/>
<text text-anchor="middle" x="963" y="-62.6" font-family="Times,serif" font-size="14.00">NotFoundComponent</text>
</g>
<!-- NotFoundComponent&#45;&gt;AppModule -->
<g id="edge15" class="edge">
<title>NotFoundComponent&#45;&gt;AppModule</title>
<path fill="none" stroke="black" d="M963,-84.97C963,-103.89 963,-130.8 963,-130.8 963,-130.8 1972.08,-130.8 1972.08,-130.8"/>
<polygon fill="black" stroke="black" points="1972.08,-134.3 1982.08,-130.8 1972.08,-127.3 1972.08,-134.3"/>
</g>
<!-- PdfViewerComponent -->
<g id="node16" class="node">
<title>PdfViewerComponent</title>
<polygon fill="#ffffb3" stroke="black" points="875.97,-84.8 734.03,-84.8 734.03,-48.8 875.97,-48.8 875.97,-84.8"/>
<text text-anchor="middle" x="805" y="-62.6" font-family="Times,serif" font-size="14.00">PdfViewerComponent</text>
</g>
<!-- PdfViewerComponent&#45;&gt;AppModule -->
<g id="edge16" class="edge">
<title>PdfViewerComponent&#45;&gt;AppModule</title>
<path fill="none" stroke="black" d="M805,-85.11C805,-104.95 805,-133.8 805,-133.8 805,-133.8 1972.04,-133.8 1972.04,-133.8"/>
<polygon fill="black" stroke="black" points="1972.04,-137.3 1982.04,-133.8 1972.04,-130.3 1972.04,-137.3"/>
</g>
<!-- RegisterComponent -->
<g id="node17" class="node">
<title>RegisterComponent</title>
<polygon fill="#ffffb3" stroke="black" points="715.98,-84.8 588.02,-84.8 588.02,-48.8 715.98,-48.8 715.98,-84.8"/>
<text text-anchor="middle" x="652" y="-62.6" font-family="Times,serif" font-size="14.00">RegisterComponent</text>
</g>
<!-- RegisterComponent&#45;&gt;AppModule -->
<g id="edge17" class="edge">
<title>RegisterComponent&#45;&gt;AppModule</title>
<path fill="none" stroke="black" d="M652,-84.83C652,-105.57 652,-136.8 652,-136.8 652,-136.8 1972.19,-136.8 1972.19,-136.8"/>
<polygon fill="black" stroke="black" points="1972.19,-140.3 1982.19,-136.8 1972.19,-133.3 1972.19,-140.3"/>
</g>
<!-- SidenavComponent -->
<g id="node18" class="node">
<title>SidenavComponent</title>
<polygon fill="#ffffb3" stroke="black" points="570.44,-84.8 443.56,-84.8 443.56,-48.8 570.44,-48.8 570.44,-84.8"/>
<text text-anchor="middle" x="507" y="-62.6" font-family="Times,serif" font-size="14.00">SidenavComponent</text>
</g>
<!-- SidenavComponent&#45;&gt;AppModule -->
<g id="edge18" class="edge">
<title>SidenavComponent&#45;&gt;AppModule</title>
<path fill="none" stroke="black" d="M507,-84.97C507,-106.3 507,-138.8 507,-138.8 507,-138.8 1972.24,-138.8 1972.24,-138.8"/>
<polygon fill="black" stroke="black" points="1972.24,-142.3 1982.24,-138.8 1972.24,-135.3 1972.24,-142.3"/>
</g>
<!-- StudentsFilterPipe -->
<g id="node19" class="node">
<title>StudentsFilterPipe</title>
<polygon fill="#ffffb3" stroke="black" points="425.94,-84.8 306.06,-84.8 306.06,-48.8 425.94,-48.8 425.94,-84.8"/>
<text text-anchor="middle" x="366" y="-62.6" font-family="Times,serif" font-size="14.00">StudentsFilterPipe</text>
</g>
<!-- StudentsFilterPipe&#45;&gt;AppModule -->
<g id="edge19" class="edge">
<title>StudentsFilterPipe&#45;&gt;AppModule</title>
<path fill="none" stroke="black" d="M366,-84.96C366,-107.15 366,-141.8 366,-141.8 366,-141.8 1972.19,-141.8 1972.19,-141.8"/>
<polygon fill="black" stroke="black" points="1972.19,-145.3 1982.19,-141.8 1972.19,-138.3 1972.19,-145.3"/>
</g>
<!-- TablesComponent -->
<g id="node20" class="node">
<title>TablesComponent</title>
<polygon fill="#ffffb3" stroke="black" points="288.15,-84.8 169.85,-84.8 169.85,-48.8 288.15,-48.8 288.15,-84.8"/>
<text text-anchor="middle" x="229" y="-62.6" font-family="Times,serif" font-size="14.00">TablesComponent</text>
</g>
<!-- TablesComponent&#45;&gt;AppModule -->
<g id="edge20" class="edge">
<title>TablesComponent&#45;&gt;AppModule</title>
<path fill="none" stroke="black" d="M229,-84.89C229,-107.93 229,-144.8 229,-144.8 229,-144.8 1972.27,-144.8 1972.27,-144.8"/>
<polygon fill="black" stroke="black" points="1972.27,-148.3 1982.27,-144.8 1972.27,-141.3 1972.27,-148.3"/>
</g>
<!-- WidgetsComponent -->
<g id="node21" class="node">
<title>WidgetsComponent</title>
<polygon fill="#ffffb3" stroke="black" points="151.99,-84.8 24.01,-84.8 24.01,-48.8 151.99,-48.8 151.99,-84.8"/>
<text text-anchor="middle" x="88" y="-62.6" font-family="Times,serif" font-size="14.00">WidgetsComponent</text>
</g>
<!-- WidgetsComponent&#45;&gt;AppModule -->
<g id="edge21" class="edge">
<title>WidgetsComponent&#45;&gt;AppModule</title>
<path fill="none" stroke="black" d="M88,-85.18C88,-109.08 88,-147.8 88,-147.8 88,-147.8 1972.22,-147.8 1972.22,-147.8"/>
<polygon fill="black" stroke="black" points="1972.22,-151.3 1982.22,-147.8 1972.22,-144.3 1972.22,-151.3"/>
</g>
<!-- AppComponent  -->
<g id="node24" class="node">
<title>AppComponent </title>
<polygon fill="#80b1d3" stroke="black" points="2078.44,-214.8 1969.56,-214.8 1969.56,-178.8 2078.44,-178.8 2078.44,-214.8"/>
<text text-anchor="middle" x="2024" y="-192.6" font-family="Times,serif" font-size="14.00">AppComponent </text>
</g>
<!-- AppModule&#45;&gt;AppComponent  -->
<g id="edge23" class="edge">
<title>AppModule&#45;&gt;AppComponent </title>
<path fill="none" stroke="black" stroke-dasharray="1,5" d="M2024,-149.91C2024,-149.91 2024,-168.79 2024,-168.79"/>
<polygon fill="black" stroke="black" points="2020.5,-168.79 2024,-178.79 2027.5,-168.79 2020.5,-168.79"/>
</g>
<!-- AppRoutingModule -->
<g id="node23" class="node">
<title>AppRoutingModule</title>
<polygon fill="#8dd3c7" stroke="black" points="3392.27,-84.8 3389.27,-88.8 3368.27,-88.8 3365.27,-84.8 3263.73,-84.8 3263.73,-48.8 3392.27,-48.8 3392.27,-84.8"/>
<text text-anchor="middle" x="3328" y="-62.6" font-family="Times,serif" font-size="14.00">AppRoutingModule</text>
</g>
<!-- AppRoutingModule&#45;&gt;AppModule -->
<g id="edge22" class="edge">
<title>AppRoutingModule&#45;&gt;AppModule</title>
<path fill="none" stroke="black" d="M3328,-84.83C3328,-105.57 3328,-136.8 3328,-136.8 3328,-136.8 2075.91,-136.8 2075.91,-136.8"/>
<polygon fill="black" stroke="black" points="2075.91,-133.3 2065.91,-136.8 2075.91,-140.3 2075.91,-133.3"/>
</g>
<!-- ErrorInterceptor -->
<g id="node25" class="node">
<title>ErrorInterceptor</title>
<ellipse fill="#fdb462" stroke="black" cx="3958" cy="-66.8" rx="73.53" ry="18"/>
<text text-anchor="middle" x="3958" y="-62.6" font-family="Times,serif" font-size="14.00">ErrorInterceptor</text>
</g>
<!-- ErrorInterceptor&#45;&gt;AppModule -->
<g id="edge24" class="edge">
<title>ErrorInterceptor&#45;&gt;AppModule</title>
<path fill="none" stroke="black" d="M3958,-85.18C3958,-109.08 3958,-147.8 3958,-147.8 3958,-147.8 2075.74,-147.8 2075.74,-147.8"/>
<polygon fill="black" stroke="black" points="2075.74,-144.3 2065.74,-147.8 2075.74,-151.3 2075.74,-144.3"/>
</g>
<!-- HttpService -->
<g id="node26" class="node">
<title>HttpService</title>
<ellipse fill="#fdb462" stroke="black" cx="3809" cy="-66.8" rx="57.32" ry="18"/>
<text text-anchor="middle" x="3809" y="-62.6" font-family="Times,serif" font-size="14.00">HttpService</text>
</g>
<!-- HttpService&#45;&gt;AppModule -->
<g id="edge25" class="edge">
<title>HttpService&#45;&gt;AppModule</title>
<path fill="none" stroke="black" d="M3809,-84.89C3809,-107.93 3809,-144.8 3809,-144.8 3809,-144.8 2075.93,-144.8 2075.93,-144.8"/>
<polygon fill="black" stroke="black" points="2075.93,-141.3 2065.93,-144.8 2075.93,-148.3 2075.93,-141.3"/>
</g>
<!-- LoadingService -->
<g id="node27" class="node">
<title>LoadingService</title>
<ellipse fill="#fdb462" stroke="black" cx="3662" cy="-66.8" rx="72.35" ry="18"/>
<text text-anchor="middle" x="3662" y="-62.6" font-family="Times,serif" font-size="14.00">LoadingService</text>
</g>
<!-- LoadingService&#45;&gt;AppModule -->
<g id="edge26" class="edge">
<title>LoadingService&#45;&gt;AppModule</title>
<path fill="none" stroke="black" d="M3662,-84.96C3662,-107.15 3662,-141.8 3662,-141.8 3662,-141.8 2075.72,-141.8 2075.72,-141.8"/>
<polygon fill="black" stroke="black" points="2075.72,-138.3 2065.72,-141.8 2075.72,-145.3 2075.72,-138.3"/>
</g>
<!-- TokenInterceptor -->
<g id="node28" class="node">
<title>TokenInterceptor</title>
<ellipse fill="#fdb462" stroke="black" cx="3494" cy="-66.8" rx="78.13" ry="18"/>
<text text-anchor="middle" x="3494" y="-62.6" font-family="Times,serif" font-size="14.00">TokenInterceptor</text>
</g>
<!-- TokenInterceptor&#45;&gt;AppModule -->
<g id="edge27" class="edge">
<title>TokenInterceptor&#45;&gt;AppModule</title>
<path fill="none" stroke="black" d="M3494,-84.97C3494,-106.3 3494,-138.8 3494,-138.8 3494,-138.8 2076.02,-138.8 2076.02,-138.8"/>
<polygon fill="black" stroke="black" points="2076.02,-135.3 2066.02,-138.8 2076.02,-142.3 2076.02,-135.3"/>
</g>
</g>
</svg>
