<?xml version="1.0" encoding="UTF-8" standalone="no"?>
<!DOCTYPE svg PUBLIC "-//W3C//DTD SVG 1.1//EN"
 "http://www.w3.org/Graphics/SVG/1.1/DTD/svg11.dtd">
<!-- Generated by graphviz version 2.47.3 (20210619.1520)
 -->
<!-- Title: dependencies Pages: 1 -->
<svg width="4064pt" height="247pt"
 viewBox="0.00 0.00 4064.00 246.80" xmlns="http://www.w3.org/2000/svg" xmlns:xlink="http://www.w3.org/1999/xlink">
<g id="graph0" class="graph" transform="scale(1 1) rotate(0) translate(4 242.8)">
<title>dependencies</title>
<polygon fill="white" stroke="transparent" points="-4,4 -4,-242.8 4060,-242.8 4060,4 -4,4"/>
<text text-anchor="middle" x="2028" y="-8.2" font-family="sans-serif" font-size="14.00">dependencies</text>
<g id="clust1" class="cluster">
<title>cluster_AppModule</title>
<polygon fill="none" stroke="black" stroke-dasharray="1,5" points="8,-32.8 8,-230.8 4048,-230.8 4048,-32.8 8,-32.8"/>
</g>
<g id="clust2" class="cluster">
<title>cluster_AppModule_declarations</title>
<polygon fill="none" stroke="black" points="808,-40.8 808,-92.8 4040,-92.8 4040,-40.8 808,-40.8"/>
</g>
<g id="clust24" class="cluster">
<title>cluster_AppModule_imports</title>
<polygon fill="none" stroke="black" points="656,-40.8 656,-92.8 800,-92.8 800,-40.8 656,-40.8"/>
</g>
<g id="clust26" class="cluster">
<title>cluster_AppModule_bootstrap</title>
<polygon fill="none" stroke="black" points="1911,-170.8 1911,-222.8 2035,-222.8 2035,-170.8 1911,-170.8"/>
</g>
<g id="clust27" class="cluster">
<title>cluster_AppModule_providers</title>
<polygon fill="none" stroke="black" points="16,-40.8 16,-92.8 648,-92.8 648,-40.8 16,-40.8"/>
</g>
<!-- AppComponent -->
<g id="node1" class="node">
<title>AppComponent</title>
<polygon fill="#ffffb3" stroke="black" points="4031.94,-84.8 3926.06,-84.8 3926.06,-48.8 4031.94,-48.8 4031.94,-84.8"/>
<text text-anchor="middle" x="3979" y="-62.6" font-family="Times,serif" font-size="14.00">AppComponent</text>
</g>
<!-- AppModule -->
<g id="node22" class="node">
<title>AppModule</title>
<polygon fill="#8dd3c7" stroke="black" points="2014.66,-149.8 2011.66,-153.8 1990.66,-153.8 1987.66,-149.8 1931.34,-149.8 1931.34,-113.8 2014.66,-113.8 2014.66,-149.8"/>
<text text-anchor="middle" x="1973" y="-127.6" font-family="Times,serif" font-size="14.00">AppModule</text>
</g>
<!-- AppComponent&#45;&gt;AppModule -->
<g id="edge1" class="edge">
<title>AppComponent&#45;&gt;AppModule</title>
<path fill="none" stroke="black" d="M3979,-85.18C3979,-109.08 3979,-147.8 3979,-147.8 3979,-147.8 2024.9,-147.8 2024.9,-147.8"/>
<polygon fill="black" stroke="black" points="2024.9,-144.3 2014.9,-147.8 2024.9,-151.3 2024.9,-144.3"/>
</g>
<!-- ChartjsComponent -->
<g id="node2" class="node">
<title>ChartjsComponent</title>
<polygon fill="#ffffb3" stroke="black" points="3907.77,-84.8 3786.23,-84.8 3786.23,-48.8 3907.77,-48.8 3907.77,-84.8"/>
<text text-anchor="middle" x="3847" y="-62.6" font-family="Times,serif" font-size="14.00">ChartjsComponent</text>
</g>
<!-- ChartjsComponent&#45;&gt;AppModule -->
<g id="edge2" class="edge">
<title>ChartjsComponent&#45;&gt;AppModule</title>
<path fill="none" stroke="black" d="M3847,-84.89C3847,-107.93 3847,-144.8 3847,-144.8 3847,-144.8 2024.77,-144.8 2024.77,-144.8"/>
<polygon fill="black" stroke="black" points="2024.77,-141.3 2014.77,-144.8 2024.77,-148.3 2024.77,-141.3"/>
</g>
<!-- CsvUploadComponent -->
<g id="node3" class="node">
<title>CsvUploadComponent</title>
<polygon fill="#ffffb3" stroke="black" points="3768.33,-84.8 3623.67,-84.8 3623.67,-48.8 3768.33,-48.8 3768.33,-84.8"/>
<text text-anchor="middle" x="3696" y="-62.6" font-family="Times,serif" font-size="14.00">CsvUploadComponent</text>
</g>
<!-- CsvUploadComponent&#45;&gt;AppModule -->
<g id="edge3" class="edge">
<title>CsvUploadComponent&#45;&gt;AppModule</title>
<path fill="none" stroke="black" d="M3696,-84.96C3696,-107.15 3696,-141.8 3696,-141.8 3696,-141.8 2024.74,-141.8 2024.74,-141.8"/>
<polygon fill="black" stroke="black" points="2024.74,-138.3 2014.74,-141.8 2024.74,-145.3 2024.74,-138.3"/>
</g>
<!-- DashboardComponent -->
<g id="node4" class="node">
<title>DashboardComponent</title>
<polygon fill="#ffffb3" stroke="black" points="3605.97,-84.8 3464.03,-84.8 3464.03,-48.8 3605.97,-48.8 3605.97,-84.8"/>
<text text-anchor="middle" x="3535" y="-62.6" font-family="Times,serif" font-size="14.00">DashboardComponent</text>
</g>
<!-- DashboardComponent&#45;&gt;AppModule -->
<g id="edge4" class="edge">
<title>DashboardComponent&#45;&gt;AppModule</title>
<path fill="none" stroke="black" d="M3535,-84.97C3535,-106.3 3535,-138.8 3535,-138.8 3535,-138.8 2024.78,-138.8 2024.78,-138.8"/>
<polygon fill="black" stroke="black" points="2024.78,-135.3 2014.78,-138.8 2024.78,-142.3 2024.78,-135.3"/>
</g>
<!-- DragDropComponent -->
<g id="node5" class="node">
<title>DragDropComponent</title>
<polygon fill="#ffffb3" stroke="black" points="3446.08,-84.8 3307.92,-84.8 3307.92,-48.8 3446.08,-48.8 3446.08,-84.8"/>
<text text-anchor="middle" x="3377" y="-62.6" font-family="Times,serif" font-size="14.00">DragDropComponent</text>
</g>
<!-- DragDropComponent&#45;&gt;AppModule -->
<g id="edge5" class="edge">
<title>DragDropComponent&#45;&gt;AppModule</title>
<path fill="none" stroke="black" d="M3377,-84.83C3377,-105.57 3377,-136.8 3377,-136.8 3377,-136.8 2025.02,-136.8 2025.02,-136.8"/>
<polygon fill="black" stroke="black" points="2025.02,-133.3 2015.02,-136.8 2025.02,-140.3 2025.02,-133.3"/>
</g>
<!-- ExcelExportComponent -->
<g id="node6" class="node">
<title>ExcelExportComponent</title>
<polygon fill="#ffffb3" stroke="black" points="3289.81,-84.8 3138.19,-84.8 3138.19,-48.8 3289.81,-48.8 3289.81,-84.8"/>
<text text-anchor="middle" x="3214" y="-62.6" font-family="Times,serif" font-size="14.00">ExcelExportComponent</text>
</g>
<!-- ExcelExportComponent&#45;&gt;AppModule -->
<g id="edge6" class="edge">
<title>ExcelExportComponent&#45;&gt;AppModule</title>
<path fill="none" stroke="black" d="M3214,-85.11C3214,-104.95 3214,-133.8 3214,-133.8 3214,-133.8 2025,-133.8 2025,-133.8"/>
<polygon fill="black" stroke="black" points="2025,-130.3 2015,-133.8 2025,-137.3 2025,-130.3"/>
</g>
<!-- FileUploadComponent -->
<g id="node7" class="node">
<title>FileUploadComponent</title>
<polygon fill="#ffffb3" stroke="black" points="3120.32,-84.8 2975.68,-84.8 2975.68,-48.8 3120.32,-48.8 3120.32,-84.8"/>
<text text-anchor="middle" x="3048" y="-62.6" font-family="Times,serif" font-size="14.00">FileUploadComponent</text>
</g>
<!-- FileUploadComponent&#45;&gt;AppModule -->
<g id="edge7" class="edge">
<title>FileUploadComponent&#45;&gt;AppModule</title>
<path fill="none" stroke="black" d="M3048,-84.97C3048,-103.89 3048,-130.8 3048,-130.8 3048,-130.8 2024.81,-130.8 2024.81,-130.8"/>
<polygon fill="black" stroke="black" points="2024.81,-127.3 2014.81,-130.8 2024.81,-134.3 2024.81,-127.3"/>
</g>
<!-- FooterComponent -->
<g id="node8" class="node">
<title>FooterComponent</title>
<polygon fill="#ffffb3" stroke="black" points="2957.88,-84.8 2840.12,-84.8 2840.12,-48.8 2957.88,-48.8 2957.88,-84.8"/>
<text text-anchor="middle" x="2899" y="-62.6" font-family="Times,serif" font-size="14.00">FooterComponent</text>
</g>
<!-- FooterComponent&#45;&gt;AppModule -->
<g id="edge8" class="edge">
<title>FooterComponent&#45;&gt;AppModule</title>
<path fill="none" stroke="black" d="M2899,-85.1C2899,-103.07 2899,-127.8 2899,-127.8 2899,-127.8 2024.89,-127.8 2024.89,-127.8"/>
<polygon fill="black" stroke="black" points="2024.89,-124.3 2014.89,-127.8 2024.89,-131.3 2024.89,-124.3"/>
</g>
<!-- GeneralElementsComponent -->
<g id="node9" class="node">
<title>GeneralElementsComponent</title>
<polygon fill="#ffffb3" stroke="black" points="2821.73,-84.8 2644.27,-84.8 2644.27,-48.8 2821.73,-48.8 2821.73,-84.8"/>
<text text-anchor="middle" x="2733" y="-62.6" font-family="Times,serif" font-size="14.00">GeneralElementsComponent</text>
</g>
<!-- GeneralElementsComponent&#45;&gt;AppModule -->
<g id="edge9" class="edge">
<title>GeneralElementsComponent&#45;&gt;AppModule</title>
<path fill="none" stroke="black" d="M2733,-84.82C2733,-102.17 2733,-125.8 2733,-125.8 2733,-125.8 2024.67,-125.8 2024.67,-125.8"/>
<polygon fill="black" stroke="black" points="2024.67,-122.3 2014.67,-125.8 2024.67,-129.3 2024.67,-122.3"/>
</g>
<!-- JwtTokenExampleComponent -->
<g id="node10" class="node">
<title>JwtTokenExampleComponent</title>
<polygon fill="#ffffb3" stroke="black" points="2626.3,-84.8 2439.7,-84.8 2439.7,-48.8 2626.3,-48.8 2626.3,-84.8"/>
<text text-anchor="middle" x="2533" y="-62.6" font-family="Times,serif" font-size="14.00">JwtTokenExampleComponent</text>
</g>
<!-- JwtTokenExampleComponent&#45;&gt;AppModule -->
<g id="edge10" class="edge">
<title>JwtTokenExampleComponent&#45;&gt;AppModule</title>
<path fill="none" stroke="black" d="M2533,-84.83C2533,-101.2 2533,-122.8 2533,-122.8 2533,-122.8 2025.09,-122.8 2025.09,-122.8"/>
<polygon fill="black" stroke="black" points="2025.09,-119.3 2015.09,-122.8 2025.09,-126.3 2025.09,-119.3"/>
</g>
<!-- LoadingScreenComponent -->
<g id="node11" class="node">
<title>LoadingScreenComponent</title>
<polygon fill="#ffffb3" stroke="black" points="2422.08,-84.8 2255.92,-84.8 2255.92,-48.8 2422.08,-48.8 2422.08,-84.8"/>
<text text-anchor="middle" x="2339" y="-62.6" font-family="Times,serif" font-size="14.00">LoadingScreenComponent</text>
</g>
<!-- LoadingScreenComponent&#45;&gt;AppModule -->
<g id="edge11" class="edge">
<title>LoadingScreenComponent&#45;&gt;AppModule</title>
<path fill="none" stroke="black" d="M2339,-85.04C2339,-100.37 2339,-119.8 2339,-119.8 2339,-119.8 2024.98,-119.8 2024.98,-119.8"/>
<polygon fill="black" stroke="black" points="2024.98,-116.3 2014.98,-119.8 2024.98,-123.3 2024.98,-116.3"/>
</g>
<!-- LoginComponent -->
<g id="node12" class="node">
<title>LoginComponent</title>
<polygon fill="#ffffb3" stroke="black" points="2238.28,-84.8 2123.72,-84.8 2123.72,-48.8 2238.28,-48.8 2238.28,-84.8"/>
<text text-anchor="middle" x="2181" y="-62.6" font-family="Times,serif" font-size="14.00">LoginComponent</text>
</g>
<!-- LoginComponent&#45;&gt;AppModule -->
<g id="edge12" class="edge">
<title>LoginComponent&#45;&gt;AppModule</title>
<path fill="none" stroke="black" d="M2181,-84.85C2181,-99.17 2181,-116.8 2181,-116.8 2181,-116.8 2025.09,-116.8 2025.09,-116.8"/>
<polygon fill="black" stroke="black" points="2025.09,-113.3 2015.09,-116.8 2025.09,-120.3 2025.09,-113.3"/>
</g>
<!-- ModalsComponent -->
<g id="node13" class="node">
<title>ModalsComponent</title>
<polygon fill="#ffffb3" stroke="black" points="2105.83,-84.8 1982.17,-84.8 1982.17,-48.8 2105.83,-48.8 2105.83,-84.8"/>
<text text-anchor="middle" x="2044" y="-62.6" font-family="Times,serif" font-size="14.00">ModalsComponent</text>
</g>
<!-- ModalsComponent&#45;&gt;AppModule -->
<g id="edge13" class="edge">
<title>ModalsComponent&#45;&gt;AppModule</title>
<path fill="none" stroke="black" d="M1998.58,-84.91C1998.58,-84.91 1998.58,-103.79 1998.58,-103.79"/>
<polygon fill="black" stroke="black" points="1995.08,-103.79 1998.58,-113.79 2002.08,-103.79 1995.08,-103.79"/>
</g>
<!-- NavbarComponent -->
<g id="node14" class="node">
<title>NavbarComponent</title>
<polygon fill="#ffffb3" stroke="black" points="1964.03,-84.8 1841.97,-84.8 1841.97,-48.8 1964.03,-48.8 1964.03,-84.8"/>
<text text-anchor="middle" x="1903" y="-62.6" font-family="Times,serif" font-size="14.00">NavbarComponent</text>
</g>
<!-- NavbarComponent&#45;&gt;AppModule -->
<g id="edge14" class="edge">
<title>NavbarComponent&#45;&gt;AppModule</title>
<path fill="none" stroke="black" d="M1947.72,-84.91C1947.72,-84.91 1947.72,-103.79 1947.72,-103.79"/>
<polygon fill="black" stroke="black" points="1944.22,-103.79 1947.72,-113.79 1951.22,-103.79 1944.22,-103.79"/>
</g>
<!-- NotFoundComponent -->
<g id="node15" class="node">
<title>NotFoundComponent</title>
<polygon fill="#ffffb3" stroke="black" points="1824.11,-84.8 1685.89,-84.8 1685.89,-48.8 1824.11,-48.8 1824.11,-84.8"/>
<text text-anchor="middle" x="1755" y="-62.6" font-family="Times,serif" font-size="14.00">NotFoundComponent</text>
</g>
<!-- NotFoundComponent&#45;&gt;AppModule -->
<g id="edge15" class="edge">
<title>NotFoundComponent&#45;&gt;AppModule</title>
<path fill="none" stroke="black" d="M1755,-84.85C1755,-99.17 1755,-116.8 1755,-116.8 1755,-116.8 1921.23,-116.8 1921.23,-116.8"/>
<polygon fill="black" stroke="black" points="1921.23,-120.3 1931.23,-116.8 1921.23,-113.3 1921.23,-120.3"/>
</g>
<!-- PdfViewerComponent -->
<g id="node16" class="node">
<title>PdfViewerComponent</title>
<polygon fill="#ffffb3" stroke="black" points="1667.97,-84.8 1526.03,-84.8 1526.03,-48.8 1667.97,-48.8 1667.97,-84.8"/>
<text text-anchor="middle" x="1597" y="-62.6" font-family="Times,serif" font-size="14.00">PdfViewerComponent</text>
</g>
<!-- PdfViewerComponent&#45;&gt;AppModule -->
<g id="edge16" class="edge">
<title>PdfViewerComponent&#45;&gt;AppModule</title>
<path fill="none" stroke="black" d="M1597,-85.04C1597,-100.37 1597,-119.8 1597,-119.8 1597,-119.8 1921.32,-119.8 1921.32,-119.8"/>
<polygon fill="black" stroke="black" points="1921.32,-123.3 1931.32,-119.8 1921.32,-116.3 1921.32,-123.3"/>
</g>
<!-- RegisterComponent -->
<g id="node17" class="node">
<title>RegisterComponent</title>
<polygon fill="#ffffb3" stroke="black" points="1507.98,-84.8 1380.02,-84.8 1380.02,-48.8 1507.98,-48.8 1507.98,-84.8"/>
<text text-anchor="middle" x="1444" y="-62.6" font-family="Times,serif" font-size="14.00">RegisterComponent</text>
</g>
<!-- RegisterComponent&#45;&gt;AppModule -->
<g id="edge17" class="edge">
<title>RegisterComponent&#45;&gt;AppModule</title>
<path fill="none" stroke="black" d="M1444,-84.83C1444,-101.2 1444,-122.8 1444,-122.8 1444,-122.8 1921.05,-122.8 1921.05,-122.8"/>
<polygon fill="black" stroke="black" points="1921.05,-126.3 1931.05,-122.8 1921.05,-119.3 1921.05,-126.3"/>
</g>
<!-- SidenavComponent -->
<g id="node18" class="node">
<title>SidenavComponent</title>
<polygon fill="#ffffb3" stroke="black" points="1362.44,-84.8 1235.56,-84.8 1235.56,-48.8 1362.44,-48.8 1362.44,-84.8"/>
<text text-anchor="middle" x="1299" y="-62.6" font-family="Times,serif" font-size="14.00">SidenavComponent</text>
</g>
<!-- SidenavComponent&#45;&gt;AppModule -->
<g id="edge18" class="edge">
<title>SidenavComponent&#45;&gt;AppModule</title>
<path fill="none" stroke="black" d="M1299,-84.82C1299,-102.17 1299,-125.8 1299,-125.8 1299,-125.8 1921.09,-125.8 1921.09,-125.8"/>
<polygon fill="black" stroke="black" points="1921.09,-129.3 1931.09,-125.8 1921.09,-122.3 1921.09,-129.3"/>
</g>
<!-- StudentsFilterPipe -->
<g id="node19" class="node">
<title>StudentsFilterPipe</title>
<polygon fill="#ffffb3" stroke="black" points="1217.94,-84.8 1098.06,-84.8 1098.06,-48.8 1217.94,-48.8 1217.94,-84.8"/>
<text text-anchor="middle" x="1158" y="-62.6" font-family="Times,serif" font-size="14.00">StudentsFilterPipe</text>
</g>
<!-- StudentsFilterPipe&#45;&gt;AppModule -->
<g id="edge19" class="edge">
<title>StudentsFilterPipe&#45;&gt;AppModule</title>
<path fill="none" stroke="black" d="M1158,-85.1C1158,-103.07 1158,-127.8 1158,-127.8 1158,-127.8 1921.18,-127.8 1921.18,-127.8"/>
<polygon fill="black" stroke="black" points="1921.18,-131.3 1931.18,-127.8 1921.18,-124.3 1921.18,-131.3"/>
</g>
<!-- TablesComponent -->
<g id="node20" class="node">
<title>TablesComponent</title>
<polygon fill="#ffffb3" stroke="black" points="1080.15,-84.8 961.85,-84.8 961.85,-48.8 1080.15,-48.8 1080.15,-84.8"/>
<text text-anchor="middle" x="1021" y="-62.6" font-family="Times,serif" font-size="14.00">TablesComponent</text>
</g>
<!-- TablesComponent&#45;&gt;AppModule -->
<g id="edge20" class="edge">
<title>TablesComponent&#45;&gt;AppModule</title>
<path fill="none" stroke="black" d="M1021,-84.97C1021,-103.89 1021,-130.8 1021,-130.8 1021,-130.8 1921.17,-130.8 1921.17,-130.8"/>
<polygon fill="black" stroke="black" points="1921.17,-134.3 1931.17,-130.8 1921.17,-127.3 1921.17,-134.3"/>
</g>
<!-- WidgetsComponent -->
<g id="node21" class="node">
<title>WidgetsComponent</title>
<polygon fill="#ffffb3" stroke="black" points="943.99,-84.8 816.01,-84.8 816.01,-48.8 943.99,-48.8 943.99,-84.8"/>
<text text-anchor="middle" x="880" y="-62.6" font-family="Times,serif" font-size="14.00">WidgetsComponent</text>
</g>
<!-- WidgetsComponent&#45;&gt;AppModule -->
<g id="edge21" class="edge">
<title>WidgetsComponent&#45;&gt;AppModule</title>
<path fill="none" stroke="black" d="M880,-85.11C880,-104.95 880,-133.8 880,-133.8 880,-133.8 1921.16,-133.8 1921.16,-133.8"/>
<polygon fill="black" stroke="black" points="1921.16,-137.3 1931.16,-133.8 1921.16,-130.3 1921.16,-137.3"/>
</g>
<!-- AppComponent  -->
<g id="node24" class="node">
<title>AppComponent </title>
<polygon fill="#80b1d3" stroke="black" points="2027.44,-214.8 1918.56,-214.8 1918.56,-178.8 2027.44,-178.8 2027.44,-214.8"/>
<text text-anchor="middle" x="1973" y="-192.6" font-family="Times,serif" font-size="14.00">AppComponent </text>
</g>
<!-- AppModule&#45;&gt;AppComponent  -->
<g id="edge23" class="edge">
<title>AppModule&#45;&gt;AppComponent </title>
<path fill="none" stroke="black" stroke-dasharray="1,5" d="M1973,-149.91C1973,-149.91 1973,-168.79 1973,-168.79"/>
<polygon fill="black" stroke="black" points="1969.5,-168.79 1973,-178.79 1976.5,-168.79 1969.5,-168.79"/>
</g>
<!-- AppRoutingModule -->
<g id="node23" class="node">
<title>AppRoutingModule</title>
<polygon fill="#8dd3c7" stroke="black" points="792.27,-84.8 789.27,-88.8 768.27,-88.8 765.27,-84.8 663.73,-84.8 663.73,-48.8 792.27,-48.8 792.27,-84.8"/>
<text text-anchor="middle" x="728" y="-62.6" font-family="Times,serif" font-size="14.00">AppRoutingModule</text>
</g>
<!-- AppRoutingModule&#45;&gt;AppModule -->
<g id="edge22" class="edge">
<title>AppRoutingModule&#45;&gt;AppModule</title>
<path fill="none" stroke="black" d="M728,-84.83C728,-105.57 728,-136.8 728,-136.8 728,-136.8 1921.22,-136.8 1921.22,-136.8"/>
<polygon fill="black" stroke="black" points="1921.22,-140.3 1931.22,-136.8 1921.22,-133.3 1921.22,-140.3"/>
</g>
<!-- ErrorInterceptor -->
<g id="node25" class="node">
<title>ErrorInterceptor</title>
<ellipse fill="#fdb462" stroke="black" cx="566" cy="-66.8" rx="73.53" ry="18"/>
<text text-anchor="middle" x="566" y="-62.6" font-family="Times,serif" font-size="14.00">ErrorInterceptor</text>
</g>
<!-- ErrorInterceptor&#45;&gt;AppModule -->
<g id="edge24" class="edge">
<title>ErrorInterceptor&#45;&gt;AppModule</title>
<path fill="none" stroke="black" d="M566,-84.97C566,-106.3 566,-138.8 566,-138.8 566,-138.8 1921.27,-138.8 1921.27,-138.8"/>
<polygon fill="black" stroke="black" points="1921.27,-142.3 1931.27,-138.8 1921.27,-135.3 1921.27,-142.3"/>
</g>
<!-- HttpService -->
<g id="node26" class="node">
<title>HttpService</title>
<ellipse fill="#fdb462" stroke="black" cx="417" cy="-66.8" rx="57.32" ry="18"/>
<text text-anchor="middle" x="417" y="-62.6" font-family="Times,serif" font-size="14.00">HttpService</text>
</g>
<!-- HttpService&#45;&gt;AppModule -->
<g id="edge25" class="edge">
<title>HttpService&#45;&gt;AppModule</title>
<path fill="none" stroke="black" d="M417,-84.96C417,-107.15 417,-141.8 417,-141.8 417,-141.8 1920.98,-141.8 1920.98,-141.8"/>
<polygon fill="black" stroke="black" points="1920.98,-145.3 1930.98,-141.8 1920.98,-138.3 1920.98,-145.3"/>
</g>
<!-- LoadingService -->
<g id="node27" class="node">
<title>LoadingService</title>
<ellipse fill="#fdb462" stroke="black" cx="270" cy="-66.8" rx="72.35" ry="18"/>
<text text-anchor="middle" x="270" y="-62.6" font-family="Times,serif" font-size="14.00">LoadingService</text>
</g>
<!-- LoadingService&#45;&gt;AppModule -->
<g id="edge26" class="edge">
<title>LoadingService&#45;&gt;AppModule</title>
<path fill="none" stroke="black" d="M270,-84.89C270,-107.93 270,-144.8 270,-144.8 270,-144.8 1921.33,-144.8 1921.33,-144.8"/>
<polygon fill="black" stroke="black" points="1921.33,-148.3 1931.33,-144.8 1921.33,-141.3 1921.33,-148.3"/>
</g>
<!-- TokenInterceptor -->
<g id="node28" class="node">
<title>TokenInterceptor</title>
<ellipse fill="#fdb462" stroke="black" cx="102" cy="-66.8" rx="78.13" ry="18"/>
<text text-anchor="middle" x="102" y="-62.6" font-family="Times,serif" font-size="14.00">TokenInterceptor</text>
</g>
<!-- TokenInterceptor&#45;&gt;AppModule -->
<g id="edge27" class="edge">
<title>TokenInterceptor&#45;&gt;AppModule</title>
<path fill="none" stroke="black" d="M102,-85.18C102,-109.08 102,-147.8 102,-147.8 102,-147.8 1921.3,-147.8 1921.3,-147.8"/>
<polygon fill="black" stroke="black" points="1921.3,-151.3 1931.3,-147.8 1921.3,-144.3 1921.3,-151.3"/>
</g>
</g>
</svg>
